<svg width="154" height="154" viewBox="0 0 154 154" fill="none" xmlns="http://www.w3.org/2000/svg">
<g clip-path="url(#clip0_418_23322)">
<path d="M56.5905 1.19922C48.7769 43.6421 42.4426 49.976 0 57.7896C42.443 65.6032 48.7769 71.9371 56.5905 114.38C64.4042 71.9371 70.7381 65.6032 113.181 57.7896C70.7381 49.976 64.4038 43.6421 56.5905 1.19922Z" fill="#226160"/>
<path d="M118.013 80.8184C113.044 107.81 109.015 111.839 82.0234 116.808C109.015 121.777 113.044 125.805 118.013 152.797C122.982 125.805 127.01 121.776 154.002 116.808C127.01 111.839 122.982 107.81 118.013 80.8184Z" fill="#226160"/>
<path d="M120.659 6.41602C118.175 19.9118 116.16 21.9261 102.664 24.4104C116.16 26.8949 118.175 28.9092 120.659 42.4048C123.144 28.9092 125.158 26.8947 138.654 24.4104C125.158 21.9261 123.144 19.9118 120.659 6.41602Z" fill="#226160"/>
</g>
<defs>
<clipPath id="clip0_418_23322">
<rect width="154" height="154" fill="white"/>
</clipPath>
</defs>
</svg>
