<svg width="257" height="157" viewBox="0 0 257 157" fill="none" xmlns="http://www.w3.org/2000/svg">
<path d="M0 148.026C1.48111 147.696 2.9766 147.492 4.47075 147.281C7.30791 146.882 10.152 146.565 12.9995 146.305C15.1823 146.105 17.3669 145.925 19.5529 145.792C23.7897 145.534 28.0288 145.358 32.2722 145.375C36.703 145.392 41.1305 145.569 45.5579 145.756C50.4123 145.962 55.2662 146.189 60.1208 146.386C64.7875 146.576 69.4552 146.73 74.1219 146.92C78.9766 147.117 83.8308 147.332 88.6849 147.55C97.8135 147.961 106.944 148.197 116.08 148.136C119.039 148.116 121.998 148.118 124.957 148.172C129.353 148.252 133.744 148.514 138.119 149.063C143.839 149.781 149.497 150.977 155.11 152.502C157.88 153.254 160.646 154.032 163.441 154.639C168.813 155.806 174.132 155.65 179.377 153.698C182.203 152.647 184.822 151.089 187.098 148.743C190.012 145.739 191.84 141.946 192.49 137.331C192.796 135.157 192.835 132.985 192.226 130.859C191.928 129.819 191.504 128.872 190.845 128.049C190.762 128.287 190.888 128.436 190.94 128.585C191.494 130.183 191.841 131.841 191.927 133.578C192.039 135.853 191.67 138.011 190.842 140.041C189.341 143.722 187.117 146.598 184.301 148.801C181.603 150.911 178.646 152.252 175.558 153.19C172.598 154.089 169.589 154.428 166.549 154.177C162.971 153.881 159.57 152.79 156.465 150.511C155.241 149.612 154.119 148.545 153.161 147.241C150.495 143.611 149.788 139.477 151.071 134.844C151.408 133.629 151.844 132.466 152.423 131.391C152.631 131.004 152.861 130.64 153.157 130.345C153.978 129.528 154.791 129.752 155.237 130.935C155.364 131.274 155.443 131.641 155.544 131.997C155.631 131.907 155.646 131.779 155.66 131.657C155.905 129.472 156.328 127.327 156.643 125.158C156.903 123.376 157.067 121.585 157.123 119.778C157.134 119.399 157.143 119.019 157.239 118.656C157.367 118.169 157.675 118.018 158.046 118.253C158.326 118.43 158.537 118.711 158.722 119.013C158.989 119.449 159.234 119.905 159.488 120.352C159.526 120.418 159.554 120.5 159.641 120.494C159.722 120.388 159.671 120.26 159.665 120.146C159.584 118.584 160.041 117.268 160.882 116.13C161.417 115.407 162.054 114.845 162.743 114.366C164.4 113.215 166.19 112.529 168.056 112.141C170.928 111.543 173.807 111.52 176.685 112.111C177.001 112.176 177.314 112.268 177.66 112.356C177.546 112.112 177.368 112.075 177.22 111.991C176.003 111.301 174.705 111.069 173.382 110.989C172.306 110.925 171.23 110.889 170.169 110.619C168.504 110.197 167.386 109.012 166.792 107.062C166.327 105.535 166.11 103.941 165.965 102.334C165.123 93.0497 164.903 83.7364 165.089 74.4026C165.165 70.5812 165.224 66.7591 165.352 62.9397C165.475 59.2889 165.613 55.638 165.971 52.0074C166.167 50.0261 166.45 48.0666 166.954 46.1588C168.059 41.9728 170.331 39.2426 173.721 37.8778C175.19 37.2862 176.703 36.9622 178.233 36.7403C182.425 36.1328 186.634 36.1892 190.84 36.2763C196.689 36.3973 202.537 36.5796 208.385 36.7285C209.582 36.759 210.78 36.7595 211.977 36.7684C212.125 36.7696 212.28 36.8198 212.42 36.7216C212.431 36.632 212.377 36.6112 212.332 36.5917C209.441 35.3495 206.479 34.5652 203.407 34.4653C201.174 34.3927 198.97 34.7197 196.773 35.1665C195.323 35.4615 193.882 35.8236 192.424 36.0556C192.032 36.1179 191.638 36.1626 191.247 36.0916C190.542 35.9636 190.348 35.3217 190.802 34.6431C191.055 34.2655 191.381 33.991 191.711 33.7272C192.545 33.0607 193.432 32.5183 194.343 32.0327C194.483 31.9581 194.619 31.8737 194.789 31.7755C193.909 31.0045 193.739 29.8733 193.683 28.7006C193.651 28.0312 193.668 27.3563 193.689 26.6851C193.778 23.831 193.863 20.9765 193.975 18.1237C194.068 15.7536 194.212 13.3872 194.452 11.0314C194.48 10.7578 194.504 10.5315 194.253 10.3335C193.029 9.36623 192.664 7.93698 192.878 6.23597C192.964 5.55001 193.134 4.88888 193.344 4.24261C193.772 2.92123 194.527 2.00397 195.596 1.47036C196.505 1.01646 197.459 0.767766 198.424 0.597458C201.223 0.103229 204.035 -0.133551 206.864 0.0770195C207.821 0.148344 208.765 0.336671 209.685 0.688692C211.079 1.22249 212.249 2.16035 213.149 3.58318C213.287 3.80276 213.448 3.98025 213.636 4.13235C214.051 4.46799 214.442 4.84219 214.814 5.24625C215.135 5.59494 215.434 5.9697 215.693 6.39072C216.546 7.78078 216.578 9.10393 215.74 10.5004C215.534 10.8443 215.488 11.1529 215.548 11.5437C215.897 13.8401 216.033 16.1649 216.13 18.4931C216.293 22.3971 216.258 26.304 216.226 30.2107C216.219 30.9571 216.154 30.8568 216.7 31.127C219.633 32.5781 222.55 34.0837 225.587 35.1854C228.047 36.0776 230.552 36.7546 233.042 37.5006C234.441 37.9197 235.803 38.467 237.086 39.2839C240.67 41.5653 243.063 45.0654 244.258 49.8044C244.868 52.2199 245.251 54.692 245.493 57.1964C246.193 64.4515 246.228 71.737 246.109 79.0276C246.067 81.5684 245.969 84.1069 245.836 86.6432C245.806 87.2316 245.835 87.8162 245.875 88.4039C246.069 91.2495 246.237 94.0979 246.436 96.943C246.652 100.019 246.861 103.095 247 106.177C247.2 110.584 247.28 114.993 246.915 119.394C246.669 122.346 246.269 125.26 245.401 128.05C245.182 128.757 244.946 129.457 244.646 130.116C244.487 130.464 244.44 130.811 244.454 131.2C244.527 133.173 244.713 135.134 244.832 137.102C244.932 138.754 244.829 140.373 244.369 141.944C243.951 143.375 243.201 144.437 242.092 145.125C241.294 145.62 240.446 145.941 239.595 146.259C239.327 146.359 239.039 146.411 238.715 146.694C239.149 146.803 239.492 146.869 239.841 146.882C240.901 146.923 241.961 146.981 243.021 146.995C247.075 147.049 251.124 147.329 255.176 147.466C255.5 147.477 255.825 147.484 256.15 147.495C256.58 147.51 256.601 147.535 256.603 147.862C256.606 148.292 256.35 148.175 256.168 148.172C255.364 148.161 254.559 148.151 253.756 148.112C249.467 147.904 245.177 147.703 240.883 147.636C240.148 147.625 239.413 147.574 238.688 147.406C238.538 147.371 238.386 147.324 238.247 147.248C237.814 147.011 237.77 146.636 238.115 146.228C238.174 146.159 238.272 146.136 238.284 145.995C235.872 144.826 235.361 142.534 235.841 139.678C235.718 139.592 235.631 139.689 235.544 139.729C232.939 140.929 230.258 141.736 227.493 142.13C225.942 142.351 224.386 142.255 222.833 142.318C221.004 142.393 219.173 142.392 217.343 142.394C216.867 142.394 216.492 142.576 216.14 142.959C215.241 143.936 214.471 145.066 213.622 146.102C213.5 146.252 213.481 146.424 213.477 146.618C213.402 149.915 210.684 152.489 207.968 151.982C206.585 151.724 205.376 151.07 204.493 149.68C203.862 148.686 203.75 147.589 204.094 146.412C204.245 145.892 204.477 145.429 204.739 144.985C204.827 144.837 204.958 144.723 205.004 144.523C204.884 144.383 204.745 144.477 204.621 144.487C201.403 144.743 198.278 144.186 195.24 142.872C194.903 142.726 194.581 142.524 194.259 142.33C194.123 142.248 193.996 142.132 193.881 142.008C193.748 141.864 193.656 141.682 193.741 141.452C193.815 141.251 193.964 141.211 194.127 141.21C194.472 141.209 194.805 141.314 195.137 141.409C196.436 141.781 197.731 142.165 199.029 142.538C199.496 142.672 199.97 142.768 200.448 142.796C201.07 142.832 201.273 142.538 201.127 141.803C201.043 141.375 200.92 140.959 200.809 140.54C200.648 139.939 200.533 139.328 200.494 138.696C200.429 137.63 200.728 136.763 201.422 136.108C201.889 135.668 202.415 135.372 202.97 135.145C204.313 134.597 205.704 134.404 207.107 134.304C210.306 134.075 213.313 135.023 216.221 136.565C216.582 136.757 216.931 136.983 217.244 137.281C217.971 137.972 218.025 138.755 217.394 139.588C216.994 140.117 216.505 140.503 216 140.862C215.591 141.154 215.157 141.386 214.739 141.692C215.508 141.679 216.269 141.911 217.021 141.468C217.99 140.897 219.058 140.775 220.107 140.594C221.122 140.417 222.14 140.267 223.14 139.975C225.015 139.428 226.397 138.105 227.326 136.044C228.079 134.373 228.513 132.564 228.863 130.72C229.406 127.85 229.694 124.933 229.889 122.002C230.439 113.704 230.559 105.39 230.477 97.0703C230.433 92.7019 230.325 88.335 230.078 83.9757C229.769 78.5494 229.317 73.1413 228.692 67.7551C228.222 63.7021 227.71 59.658 227.018 55.652C226.555 52.9806 226.001 50.3397 225.193 47.789C225.051 47.3394 224.896 46.895 224.733 46.4559C223.7 43.672 222.035 41.6948 219.725 40.5334C218.614 39.9753 217.474 39.5414 216.312 39.1841C216.057 39.1059 215.802 39.1152 215.547 39.1509C214.731 39.265 213.917 39.3947 213.121 39.6482C212.857 39.7324 212.593 39.8278 212.339 39.9499C211.257 40.4709 210.961 41.1592 211.202 42.5583C211.347 43.4058 211.615 44.2021 211.892 44.9921C212.799 47.5747 213.778 50.1192 214.595 52.7491C216.182 57.86 217.361 63.1157 218.296 68.4585C219 72.4859 219.518 76.5491 219.819 80.6512C220.183 85.6139 220.295 90.5861 220.168 95.568C220.061 99.7264 219.813 103.871 219.458 108.007C219.043 112.852 218.513 117.678 217.882 122.487C217.475 125.596 217.001 128.69 216.359 131.741C216.32 131.924 216.282 132.108 216.228 132.284C216.157 132.512 216.047 132.711 215.814 132.649C215.596 132.591 215.585 132.355 215.6 132.145C215.645 131.539 215.691 130.932 215.764 130.331C216.252 126.302 216.684 122.265 217.082 118.221C217.429 114.698 217.733 111.17 217.955 107.632C218.12 104.993 218.228 102.35 218.301 99.7053C218.406 95.904 218.408 92.103 218.283 88.3028C218.046 81.0492 217.386 73.8662 215.991 66.7945C214.622 59.8575 212.296 53.4597 209.003 47.5849C208.208 46.1666 207.421 44.7414 206.637 43.3136C206.341 42.7738 206.073 42.2117 205.844 41.6228C205.703 41.2615 205.582 40.8914 205.507 40.5025C205.279 39.3204 205.625 38.4265 206.525 37.9243C206.847 37.7446 207.194 37.6313 207.531 37.4867C207.501 37.3499 207.419 37.4006 207.367 37.3999C202.201 37.3312 197.038 37.1055 191.874 36.9953C188.864 36.9311 185.853 36.8778 182.844 37.0154C180.381 37.128 177.926 37.3486 175.511 37.9992C174.725 38.2108 173.958 38.4965 173.207 38.8542C170.436 40.174 168.584 42.5725 167.599 46.0048C167.067 47.8571 166.775 49.7729 166.576 51.7128C166.205 55.3207 166.063 58.949 165.938 62.5793C165.758 67.805 165.663 73.0329 165.614 78.2627C165.567 83.1582 165.633 88.0505 165.884 92.9366C166.051 96.1845 166.229 99.4323 166.57 102.662C166.7 103.891 166.866 105.112 167.178 106.296C167.289 106.716 167.424 107.123 167.586 107.518C168.031 108.606 168.723 109.336 169.664 109.72C170.533 110.074 171.432 110.179 172.34 110.231C173.297 110.285 174.255 110.325 175.202 110.517C176.716 110.824 178.075 111.581 179.317 112.672C180.628 113.825 181.801 115.176 182.972 116.529C183.808 117.494 184.592 118.519 185.355 119.571C186.344 120.935 187.366 122.265 188.336 123.651C189.236 124.937 190.119 126.231 191.128 127.406C192.577 129.095 193.181 131.315 193.238 133.717C193.368 139.131 191.848 143.798 188.822 147.717C186.623 150.566 183.913 152.449 180.941 153.793C178.097 155.078 175.147 155.736 172.127 155.99C168.529 156.293 164.989 155.786 161.477 154.894C158.146 154.048 154.825 153.145 151.496 152.292C147.946 151.383 144.367 150.694 140.769 150.14C136.915 149.546 133.044 149.216 129.164 149.018C124.052 148.757 118.938 148.801 113.824 148.821C108.623 148.841 103.424 148.786 98.2257 148.606C93.319 148.437 88.4132 148.227 83.5072 148.027C78.4474 147.822 73.3878 147.604 68.328 147.398C63.781 147.213 59.2331 147.056 54.6866 146.855C48.7555 146.593 42.8253 146.301 36.8916 146.141C33.2315 146.043 29.5708 146.04 25.9114 146.175C21.6889 146.331 17.4702 146.587 13.2572 146.984C10.4608 147.248 7.66787 147.552 4.88003 147.924C3.41862 148.119 1.9585 148.333 0.50674 148.623C0.339845 148.656 0.17136 148.699 0.000205283 148.657C0 148.446 0 148.236 0 148.026ZM199.26 143.309C199.057 143.269 198.855 143.186 198.649 143.289C198.029 142.847 197.316 142.855 196.648 142.645C197.299 142.955 197.974 143.15 198.665 143.272C198.865 143.369 199.068 143.391 199.274 143.297C199.366 143.504 199.501 143.496 199.689 143.419C199.526 143.356 199.381 143.409 199.26 143.309ZM217.32 121.488C217.597 121.239 217.516 120.841 217.556 120.516C218.047 116.553 218.486 112.58 218.838 108.593C219.265 103.768 219.559 98.9327 219.631 94.079C219.708 88.9707 219.553 83.8738 219.097 78.7938C218.778 75.244 218.294 71.7265 217.676 68.2369C216.445 61.2854 214.786 54.5041 212.361 48.025C211.847 46.6523 211.328 45.2806 210.915 43.8551C210.731 43.2211 210.584 42.5764 210.558 41.8957C210.52 40.8952 210.854 40.1525 211.55 39.6436C211.966 39.3398 212.417 39.1492 212.883 39.0036C213.219 38.8983 213.557 38.8044 213.925 38.6965C213.823 38.5398 213.719 38.5359 213.62 38.5178C213.248 38.4496 212.877 38.3715 212.504 38.3166C211.076 38.107 209.647 37.931 208.207 38.1226C207.66 38.1954 207.122 38.3103 206.633 38.6402C206.107 38.9954 205.928 39.4921 206.044 40.22C206.093 40.5308 206.177 40.827 206.281 41.1161C206.503 41.7328 206.777 42.3144 207.083 42.8721C207.78 44.1436 208.471 45.4211 209.19 46.6738C213.161 53.5924 215.711 61.2401 217.083 69.521C218.205 76.2938 218.737 83.1373 218.895 90.0322C218.988 94.0853 218.943 98.1393 218.792 102.19C218.734 103.742 218.662 105.294 218.57 106.844C218.416 109.462 218.225 112.076 217.984 114.684C217.774 116.957 217.547 119.227 217.331 121.503C217.314 121.698 217.25 121.894 217.345 122.15C217.364 121.883 217.402 121.681 217.32 121.488ZM236.044 77.3044C236.906 76.6853 237.444 76.7544 238.156 77.5458C238.411 77.8288 238.628 78.1526 238.826 78.4968C239.253 79.2386 239.582 80.0435 239.855 80.8851C240.794 83.7894 241.186 86.8263 241.271 89.9298C241.363 93.258 241.117 96.5592 240.654 99.8361C240.458 101.224 240.185 102.589 239.677 103.866C239.054 105.432 238.086 106.406 236.639 106.595C236.285 106.641 235.928 106.715 235.603 106.928C235.414 107.052 235.331 107.167 235.428 107.465C236.197 109.811 236.389 112.261 236.244 114.762C236.205 115.432 236.101 116.095 235.93 116.736C235.834 117.096 235.715 117.446 235.502 117.731C235.175 118.168 234.74 118.221 234.353 117.864C234.118 117.646 233.946 117.357 233.797 117.048C233.569 116.574 233.398 116.064 233.31 115.53C232.836 112.643 233.09 109.894 234.386 107.354C234.453 107.222 234.6 107.097 234.446 106.924C234.298 106.759 234.138 106.76 233.984 106.917C233.836 107.068 233.746 107.272 233.66 107.478C233.401 108.098 233.229 108.758 233.078 109.425C232.449 112.199 231.989 115.017 231.602 117.854C231.083 121.663 230.928 125.491 231.239 129.338C231.324 130.385 231.476 131.417 231.845 132.382C232.216 133.353 232.839 133.779 233.703 133.71C234.219 133.669 234.716 133.525 235.206 133.331C236.43 132.847 237.586 132.166 238.74 131.48C240.294 130.556 241.847 129.627 243.491 128.961C243.737 128.862 243.816 128.702 243.784 128.412C243.775 128.329 243.777 128.245 243.776 128.161C243.666 121.69 243.802 115.224 244.09 108.764C244.234 105.556 244.413 102.35 244.586 99.1448C244.693 97.1546 244.827 95.1665 244.935 93.1762C245.093 90.245 245.302 87.3221 245.081 84.3722C244.824 80.9441 244.674 77.5035 244.493 74.0672C244.223 68.9322 243.85 63.8105 243.238 58.7181C242.863 55.6029 242.445 52.497 241.801 49.4449C241.445 47.7565 241.028 46.0938 240.385 44.528C239.593 42.5999 238.411 41.1738 236.808 40.2776C236.278 39.9816 235.739 39.7191 235.183 39.5056C232.787 38.5847 230.319 38.1625 227.828 37.8912C225.373 37.6238 222.91 37.6013 220.447 37.5418C220.285 37.5379 220.123 37.5413 219.961 37.5413C220.382 37.9228 220.791 38.2286 221.305 38.2538C222.315 38.3034 223.312 38.4837 224.298 38.7585C227.338 39.6053 229.469 41.7792 230.664 45.3201C230.84 45.8429 231 46.3762 231.137 46.9162C231.795 49.5024 231.992 52.1798 232.143 54.8621C232.281 57.3138 232.338 59.7702 232.352 62.2278C232.353 62.4364 232.342 62.645 232.449 62.8336C232.643 63.1746 232.827 63.5237 233.021 63.8806C233.162 63.6944 233.144 63.4777 233.175 63.2807C233.34 62.226 233.538 61.1828 233.982 60.243C234.56 59.0187 235.334 59.0023 235.945 60.1934C236.276 60.8389 236.494 61.5481 236.649 62.2805C237.364 65.6529 237.125 68.9817 236.313 72.2779C236.229 72.6192 236.098 72.9414 235.921 73.2292C235.711 73.57 235.446 73.769 235.083 73.706C235.001 73.6917 234.918 73.6528 234.804 73.7602C235.144 74.967 235.569 76.1453 236.044 77.3044ZM157.76 118.897C157.725 119.339 157.681 119.691 157.673 120.044C157.623 122.319 157.336 124.556 156.972 126.781C156.555 129.333 156.124 131.881 155.955 134.484C155.924 134.963 155.915 135.449 155.818 135.921C155.764 136.181 155.692 136.429 155.436 136.423C155.188 136.416 155.104 136.177 155.059 135.912C154.975 135.413 154.983 134.909 155.001 134.405C155.026 133.754 155.047 133.105 154.987 132.455C154.95 132.055 154.878 131.667 154.749 131.299C154.448 130.445 154.005 130.334 153.438 130.968C153.144 131.296 152.923 131.697 152.721 132.113C152.08 133.439 151.6 134.85 151.3 136.347C151.087 137.411 150.981 138.493 151.026 139.593C151.135 142.263 151.988 144.548 153.408 146.535C154.761 148.428 156.414 149.832 158.255 150.904C161.236 152.639 164.398 153.446 167.684 153.548C170.994 153.652 174.227 153.052 177.388 151.847C180.031 150.839 182.554 149.516 184.82 147.533C187.232 145.423 189.148 142.781 190.427 139.483C191.138 137.651 191.472 135.711 191.369 133.678C191.243 131.173 190.573 128.88 189.527 126.741C189.439 126.561 189.354 126.377 189.212 126.249C188.643 125.739 188.047 125.287 187.368 125.033C186.63 124.756 186.407 125.008 186.54 125.936C186.648 126.684 186.859 127.394 187.059 128.108C187.932 131.234 188.276 134.43 187.925 137.722C187.562 141.132 186.186 143.677 183.677 145.261C182.652 145.909 181.565 146.343 180.443 146.645C177.824 147.348 175.161 147.538 172.493 147.628C169.598 147.726 166.717 147.475 163.858 146.89C162.238 146.558 160.636 146.128 159.1 145.391C157.724 144.731 156.51 143.78 155.552 142.378C155.243 141.926 154.967 141.443 154.807 140.881C154.543 139.958 154.765 139.227 155.454 138.738C155.858 138.451 156.302 138.298 156.758 138.191C158.266 137.834 159.786 137.866 161.307 138.005C163.644 138.22 165.953 138.732 168.285 138.998C171.205 139.33 174.123 139.425 177.038 138.945C178.367 138.727 179.65 138.304 180.86 137.576C182.417 136.64 183.521 135.181 184.198 133.229C184.681 131.84 184.904 130.381 184.923 128.876C184.943 127.271 184.751 125.696 184.434 124.142C183.967 121.852 183.312 119.649 182.397 117.568C182.063 116.808 181.68 116.088 181.148 115.507C180.874 115.207 180.568 114.982 180.193 114.951C179.906 114.926 179.666 114.995 179.522 115.372C179.33 115.874 179.031 116.3 178.662 116.604C178.183 116.998 177.902 117.548 177.662 118.159C177.425 118.765 177.174 119.362 176.922 119.958C176.426 121.133 175.894 122.283 175.266 123.361C174.424 124.805 173.469 126.113 172.27 127.127C171.281 127.965 170.199 128.486 168.993 128.629C166.025 128.981 162.399 126.242 161.358 122.244C160.61 119.37 161.337 116.727 163.349 114.99C163.457 114.896 163.591 114.837 163.656 114.68C163.612 114.628 163.559 114.628 163.513 114.656C162.525 115.264 161.617 116.004 160.958 117.123C160.315 118.215 160.071 119.421 160.3 120.758C160.45 121.631 160.742 122.433 161.094 123.204C161.697 124.526 162.409 125.759 163.142 126.975C163.244 127.143 163.343 127.314 163.431 127.494C163.497 127.63 163.493 127.777 163.397 127.9C163.284 128.045 163.145 128.04 163.023 127.947C162.909 127.86 162.804 127.742 162.717 127.616C162.451 127.232 162.184 126.848 161.938 126.446C161.064 125.016 160.331 123.474 159.595 121.935C159.232 121.174 158.874 120.409 158.442 119.702C158.271 119.422 158.109 119.123 157.76 118.897ZM215.629 33.049C215.629 32.4503 215.622 32.0135 215.632 31.5772C215.637 31.3435 215.526 31.2431 215.381 31.1556C214.332 30.5251 213.847 29.4237 213.66 28.0653C213.517 27.0251 213.49 25.9775 213.504 24.9267C213.533 22.7393 213.456 20.56 213.168 18.3978C212.902 16.404 212.527 14.4479 211.842 12.5968C211.188 10.8287 210.082 9.79411 208.524 9.50945C206.73 9.18175 204.943 9.29239 203.168 9.72065C202.056 9.98881 200.988 10.4254 199.961 11.0155C198.707 11.7362 197.894 12.9031 197.539 14.5526C197.398 15.204 197.296 15.8613 197.249 16.5323C197.099 18.6684 197.096 20.8112 197.06 22.9522C197.039 24.2128 197.001 25.472 196.847 26.7195C196.673 28.1317 196.46 29.5342 195.987 30.8545C195.945 30.9728 195.821 31.0758 195.918 31.2574C196.117 31.1812 196.313 31.1096 196.506 31.0321C198.93 30.0616 201.416 29.5638 203.966 29.5397C206.704 29.5139 209.389 29.9257 212.007 30.9281C213.251 31.4039 214.446 32.0106 215.629 33.049ZM183.224 117.959C183.297 118.161 183.366 118.364 183.442 118.565C184.171 120.495 184.729 122.498 185.101 124.575C185.509 126.851 185.66 129.144 185.248 131.446C184.636 134.869 183.061 137.313 180.371 138.609C179.749 138.908 179.116 139.16 178.463 139.333C175.849 140.029 173.201 140.043 170.548 139.903C167.965 139.766 165.413 139.267 162.85 138.89C161.185 138.645 159.515 138.476 157.836 138.699C157.189 138.784 156.544 138.891 155.942 139.218C155.245 139.598 155.107 140.086 155.443 140.936C155.571 141.258 155.739 141.549 155.922 141.828C156.643 142.93 157.548 143.74 158.578 144.35C159.694 145.01 160.877 145.423 162.08 145.752C164.928 146.53 167.815 146.893 170.73 146.931C173.728 146.969 176.714 146.783 179.669 146.129C181.14 145.803 182.561 145.276 183.862 144.339C185.641 143.059 186.764 141.182 187.199 138.708C187.648 136.164 187.586 133.62 187.141 131.083C186.914 129.788 186.567 128.536 186.237 127.278C186.074 126.658 185.921 126.033 185.944 125.369C185.97 124.624 186.326 124.211 186.932 124.228C187.207 124.236 187.469 124.336 187.731 124.438C187.886 124.498 188.023 124.641 188.304 124.613C186.564 122.372 185.012 120.045 183.224 117.959ZM177.021 117.902C176.785 118.01 176.55 118.122 176.313 118.224C175.909 118.398 175.502 118.561 175.072 118.599C174.894 118.614 174.728 118.561 174.641 118.339C174.549 118.104 174.652 117.925 174.783 117.786C174.964 117.595 175.16 117.425 175.357 117.26C175.922 116.787 176.495 116.329 177.057 115.851C177.41 115.552 177.734 115.208 178.014 114.808C178.473 114.154 178.419 113.874 177.771 113.588C177.563 113.496 177.346 113.428 177.129 113.371C176.358 113.168 175.572 113.103 174.787 113.06C172.251 112.921 169.728 113.049 167.244 113.758C166.074 114.092 164.949 114.589 163.921 115.369C162.712 116.286 161.897 117.556 161.686 119.318C161.517 120.719 161.785 122.036 162.333 123.261C163.369 125.575 164.973 127.019 167.022 127.725C168.379 128.192 169.698 127.982 170.966 127.25C171.716 126.817 172.374 126.222 172.98 125.534C174.839 123.421 176.001 120.742 177.021 117.902ZM232.411 64.187C232.2 81.442 231.951 98.6164 231.271 115.781C231.416 115.134 231.525 114.481 231.637 113.83C231.959 111.963 232.279 110.094 232.775 108.28C232.932 107.703 233.109 107.131 233.415 106.642C233.812 106.007 234.242 105.924 234.794 106.356C234.877 106.421 234.961 106.584 235.053 106.499C235.356 106.22 235.755 106.176 235.98 105.679C237.24 102.891 237.788 99.8968 237.783 96.7355C237.779 94.4352 237.432 92.1873 237.034 89.9494C236.61 87.5723 236.056 85.2321 235.698 82.8372C235.503 81.5354 235.285 80.2137 235.553 78.905C235.692 78.227 235.6 77.6834 235.335 77.1236C235.267 76.979 235.215 76.8223 235.159 76.6695C234.093 73.7881 233.266 70.8198 233.023 67.647C232.95 66.7052 232.873 65.7676 232.664 64.8546C232.615 64.641 232.585 64.4113 232.411 64.187ZM214.954 11.5475C214.859 11.5918 214.794 11.6126 214.737 11.6501C213.918 12.1848 213.225 11.8761 212.756 10.8633C212.579 10.4808 212.417 10.0868 212.263 9.68908C211.884 8.71007 211.3 7.96747 210.556 7.3994C208.715 5.99352 206.727 5.5526 204.603 6.05149C202.497 6.54609 200.537 7.4907 198.751 8.96015C198.168 9.43894 197.59 9.9263 196.966 10.322C196.472 10.6348 195.96 10.834 195.393 10.8013C195.045 10.7812 195.042 10.8007 194.999 11.2421C194.743 13.9118 194.588 16.5918 194.491 19.2761C194.394 22.0025 194.327 24.7307 194.245 27.4579C194.228 28.0255 194.235 28.5926 194.285 29.1565C194.338 29.7682 194.459 30.3601 194.79 30.8452C194.987 31.1345 195.142 31.1234 195.331 30.826C195.524 30.5235 195.622 30.1614 195.712 29.8002C196.139 28.0857 196.394 26.3331 196.443 24.5406C196.489 22.8202 196.505 21.0984 196.554 19.3781C196.601 17.7641 196.623 16.1471 196.944 14.5636C197.337 12.6258 198.248 11.2213 199.728 10.3803C199.883 10.2922 200.038 10.2039 200.195 10.1224C202.842 8.75197 205.603 8.36858 208.436 8.78342C210.23 9.04603 211.553 10.1856 212.33 12.2233C212.627 13.0043 212.868 13.8113 213.066 14.6374C213.738 17.4351 214.022 20.3033 214.077 23.21C214.099 24.3851 214.077 25.5617 214.104 26.7366C214.123 27.5574 214.23 28.3676 214.506 29.127C214.727 29.7344 215.069 30.1905 215.601 30.4694C215.804 26.1251 215.697 15.4679 214.954 11.5475ZM215.608 142.601C215.589 142.554 215.57 142.508 215.55 142.461C214.919 142.461 214.287 142.471 213.656 142.456C213.367 142.449 213.077 142.403 212.789 142.354C212.611 142.324 212.454 142.226 212.447 141.965C212.44 141.707 212.594 141.602 212.765 141.539C212.895 141.49 213.031 141.463 213.165 141.431C214.343 141.157 215.411 140.571 216.39 139.729C216.643 139.512 216.884 139.275 217.075 138.975C217.34 138.557 217.323 138.296 217.002 137.941C216.719 137.629 216.382 137.416 216.038 137.229C212.438 135.266 208.707 134.445 204.787 135.311C203.877 135.512 202.977 135.769 202.163 136.339C201.216 137.002 200.912 137.818 201.102 139.126C201.178 139.644 201.298 140.146 201.435 140.644C201.549 141.061 201.669 141.478 201.726 141.915C201.841 142.788 201.461 143.403 200.747 143.48C200.531 143.504 200.313 143.484 200.096 143.484C201.532 143.851 202.974 143.931 204.429 143.808C205.024 143.758 205.594 143.493 206.196 143.528C206.297 143.534 206.34 143.441 206.384 143.348C206.469 143.166 206.551 142.981 206.647 142.808C207.842 140.673 209.95 140.258 211.619 141.842C212.411 142.592 212.971 143.554 213.273 144.733C213.317 144.905 213.328 145.095 213.475 145.291C214.191 144.382 214.859 143.443 215.608 142.601ZM231.017 103.125C231.071 102.386 231.185 101.681 231.2 100.967C231.304 96.034 231.409 91.1008 231.51 86.1674C231.57 83.2284 231.625 80.2892 231.68 77.35C231.767 72.71 231.83 68.0698 231.801 63.4282C231.799 63.0812 231.739 62.7791 231.578 62.4832C231.137 61.6755 230.838 60.7841 230.607 59.855C230.213 58.2682 229.916 56.6507 229.582 55.0446C229.063 52.5416 228.511 50.0532 227.641 47.6889C226.442 44.4311 224.713 41.7374 222.191 39.8707C220.841 38.8715 220.845 38.8647 219.258 38.8844C218.984 38.8878 218.711 38.8923 218.437 38.9051C218.329 38.9102 218.207 38.869 218.059 39.0295C218.374 39.1658 218.639 39.2891 218.908 39.3958C222.22 40.7089 224.472 43.3706 225.682 47.3789C226.11 48.7969 226.5 50.2285 226.822 51.6875C227.859 56.3761 228.473 61.1656 229.058 65.9602C229.655 70.8605 230.108 75.7822 230.441 80.7213C230.764 85.5158 230.953 90.3175 231.011 95.1264C231.043 97.7922 231.017 100.459 231.017 103.125ZM203.025 1.05691C201.771 1.04783 200.531 1.17366 199.316 1.57754C197.616 2.14227 196.476 3.42535 195.924 5.49129C195.561 6.85313 195.333 8.25006 195.172 9.6657C195.13 10.0369 195.178 10.1047 195.489 10.1148C195.91 10.1285 196.296 9.95573 196.665 9.72651C197.277 9.34676 197.841 8.86986 198.408 8.40071C200.191 6.92628 202.146 5.96132 204.244 5.42551C206.473 4.85605 208.592 5.19408 210.584 6.60192C211.594 7.31528 212.373 8.27337 212.86 9.58285C212.995 9.94489 213.14 10.3053 213.315 10.6393C213.644 11.2673 214.071 11.3525 214.584 10.9493C214.766 10.8064 214.845 10.6458 214.794 10.3774C214.442 8.53422 214.036 6.71621 213.273 5.04791C213.074 4.61221 212.813 4.29283 212.456 4.04559C209.527 2.01915 206.366 1.11254 203.025 1.05691ZM191.125 35.3329C191.728 35.5219 192.251 35.3852 192.768 35.2927C194.881 34.9145 196.972 34.3807 199.091 34.0475C202.574 33.5 206.012 33.7533 209.416 34.7859C210.594 35.1433 211.746 35.6069 212.898 36.0742C213.038 36.1313 213.207 36.2895 213.332 36.1755C213.592 35.9385 213.889 36.0094 214.168 35.942C214.537 35.8528 214.904 35.7519 215.232 35.5105C215.348 35.4254 215.469 35.3489 215.521 35.1727C215.718 34.5103 215.574 33.9103 215.099 33.4641C214.455 32.8583 213.726 32.4442 212.976 32.0878C211.052 31.1732 209.052 30.667 207.003 30.4042C202.951 29.8846 199.027 30.4944 195.235 32.3359C194.057 32.9079 192.915 33.5683 191.863 34.4456C191.598 34.6671 191.328 34.888 191.125 35.3329ZM245.511 93.0408C245.462 93.9188 245.413 94.7968 245.364 95.6747C245.172 99.1086 244.966 102.541 244.792 105.977C244.641 108.951 244.515 111.928 244.438 114.908C244.321 119.44 244.241 123.973 244.363 128.508C244.366 128.634 244.302 128.805 244.473 128.892C244.509 128.82 244.548 128.754 244.575 128.681C244.805 128.048 245.004 127.4 245.176 126.74C245.99 123.62 246.319 120.396 246.497 117.145C246.718 113.093 246.588 109.044 246.372 104.999C246.206 101.9 245.993 98.8049 245.783 95.7096C245.723 94.819 245.712 93.919 245.511 93.0408ZM241.124 130.986C241.102 130.959 241.08 130.932 241.058 130.905C240.534 131.205 240.007 131.497 239.487 131.808C238.351 132.488 237.218 133.175 236.033 133.72C235.408 134.007 234.772 134.246 234.111 134.37C232.703 134.633 231.761 133.984 231.22 132.371C231.142 132.139 231.077 131.899 231.019 131.659C230.863 131.014 230.764 130.355 230.704 129.686C230.685 129.482 230.683 129.269 230.543 129.01C230.375 131.328 230.147 133.533 229.921 135.737C229.818 136.736 229.725 137.739 229.791 138.749C229.853 139.688 230.196 140.011 230.944 139.867C231.473 139.765 231.965 139.524 232.449 139.264C234.17 138.34 235.885 137.396 237.713 136.822C238.068 136.711 238.278 136.469 238.367 135.98C238.67 134.316 239.371 132.92 240.393 131.768C240.631 131.5 240.88 131.247 241.124 130.986ZM236.712 105.808C236.81 105.882 236.913 105.83 237.009 105.806C237.885 105.581 238.512 104.945 238.962 104.017C239.395 103.123 239.659 102.148 239.846 101.143C240.405 98.1444 240.654 95.0995 240.708 92.0283C240.756 89.3102 240.597 86.6159 240.058 83.9693C239.716 82.2938 239.28 80.6622 238.52 79.1897C238.282 78.7272 238.011 78.2948 237.661 77.9468C237.487 77.7736 237.301 77.6246 237.074 77.5791C236.832 77.5305 236.648 77.6545 236.482 77.8644C236.303 78.0911 236.426 78.2883 236.499 78.494C236.54 78.6093 236.589 78.7206 236.632 78.8348C238.972 85.0314 239.68 91.5121 238.815 98.2453C238.486 100.808 237.89 103.28 236.778 105.523C236.736 105.607 236.67 105.689 236.712 105.808ZM222.403 39.0727C222.422 39.173 222.42 39.2009 222.43 39.2089C222.556 39.3155 222.683 39.4212 222.811 39.5235C224.5 40.8679 225.887 42.5771 226.96 44.6703C227.802 46.3116 228.45 48.0635 228.966 49.893C229.642 52.2941 230.106 54.7673 230.613 57.2258C230.852 58.3842 231.084 59.5456 231.442 60.6598C231.504 60.8505 231.53 61.0881 231.759 61.2215C231.759 61.0578 231.76 60.9546 231.759 60.8513C231.736 57.7029 231.625 54.5599 231.314 51.4329C231.122 49.514 230.819 47.6245 230.221 45.8216C229.477 43.5793 228.361 41.7248 226.596 40.5466C225.301 39.6825 223.897 39.2798 222.403 39.0727ZM245.428 80.5919C245.442 80.5918 245.457 80.5918 245.471 80.5918C245.487 80.3 245.504 80.0084 245.518 79.7166C245.587 78.3111 245.59 76.9036 245.595 75.4965C245.615 69.2351 245.527 62.979 244.874 56.7573C244.624 54.3813 244.264 52.03 243.641 49.7519C243.054 47.6036 242.244 45.6021 241.013 43.8869C240.924 43.7624 240.851 43.5956 240.683 43.5527C240.683 43.6491 240.671 43.6966 240.685 43.7269C241.584 45.7337 242.098 47.9096 242.522 50.1199C243.476 55.0945 244.029 60.1488 244.468 65.2237C244.805 69.1291 245.019 73.0469 245.221 76.9658C245.283 78.175 245.359 79.3832 245.428 80.5919ZM230.203 37.4819C230.213 37.4592 230.223 37.4365 230.233 37.4138C230.054 37.3536 229.876 37.2891 229.697 37.2339C227.543 36.5718 225.379 35.9514 223.29 35.0158C221.092 34.0314 218.904 33.0129 216.741 31.9143C216.578 31.8312 216.422 31.6727 216.186 31.7604C216.226 32.597 216.027 33.4277 216.315 34.2479C216.433 34.583 216.374 34.9528 216.221 35.2794C216.136 35.4617 216.069 35.6469 216.031 35.8574C215.979 36.1414 216.035 36.2678 216.277 36.3385C217.425 36.675 218.574 36.9663 219.767 36.8605C220.158 36.8258 220.553 36.8602 220.946 36.8636C223.322 36.884 225.696 36.9616 228.064 37.2268C228.777 37.3068 229.49 37.3966 230.203 37.4819ZM236.488 66.0921C236.521 64.8233 236.355 63.3142 235.943 61.8512C235.798 61.3356 235.632 60.8272 235.361 60.3873C235.068 59.9111 234.849 59.9179 234.566 60.4136C234.297 60.8826 234.14 61.4179 234.014 61.9628C233.536 64.0291 233.396 66.1182 233.724 68.2448C233.893 69.3361 234.019 70.4376 234.348 71.4812C234.484 71.9124 234.636 72.3355 234.871 72.7011C235.152 73.1377 235.319 73.1195 235.558 72.6312C235.7 72.3424 235.792 72.0262 235.87 71.7038C236.291 69.9628 236.482 68.1817 236.488 66.0921ZM230.071 126.729C229.863 128.067 229.693 129.303 229.477 130.528C229.141 132.438 228.7 134.308 227.967 136.058C226.907 138.588 225.261 140.156 222.984 140.739C221.711 141.065 220.417 141.207 219.138 141.476C219.014 141.502 218.858 141.463 218.785 141.677C219.019 141.677 219.24 141.679 219.462 141.676C221.05 141.655 222.639 141.602 224.228 141.619C225.77 141.635 227.301 141.52 228.821 141.206C229.537 141.057 230.261 140.939 230.953 140.635C230.865 140.6 230.781 140.603 230.697 140.6C229.816 140.569 229.398 140.112 229.251 139.036C229.171 138.451 229.181 137.867 229.227 137.28C229.471 134.149 229.872 131.038 230.051 127.898C230.072 127.544 230.11 127.192 230.071 126.729ZM211.621 147.05C212 146.826 212.27 146.572 212.553 146.341C212.836 146.109 212.914 145.831 212.839 145.431C212.565 143.988 211.937 142.847 210.901 142.094C209.901 141.367 208.87 141.353 207.914 142.208C206.853 143.157 206.418 144.515 206.445 146.096C206.458 146.866 206.664 147.582 207.054 148.197C207.619 149.084 208.368 149.449 209.27 149.28C209.783 149.183 210.206 148.867 210.543 148.337C210.369 148.234 210.248 148.272 210.131 148.276C209.805 148.287 209.482 148.261 209.167 148.148C207.995 147.727 207.604 145.944 208.447 144.85C208.539 144.731 208.653 144.623 208.773 144.552C210.027 143.805 211.33 144.651 211.546 146.348C211.572 146.552 211.59 146.758 211.621 147.05ZM243.096 142.267C242.929 142.343 242.844 142.533 242.721 142.666C242.109 143.324 241.408 143.709 240.59 143.751C238.969 143.835 238.274 142.118 238.647 140.781C238.7 140.592 238.721 140.433 238.628 140.248C238.37 139.741 238.24 139.179 238.19 138.588C238.169 138.336 238.087 138.252 237.889 138.382C237.558 138.598 237.223 138.806 236.887 139.011C236.721 139.113 236.643 139.293 236.569 139.485C236.246 140.328 236.169 141.218 236.276 142.127C236.543 144.379 237.976 145.672 239.795 145.258C241.168 144.946 242.237 144.017 243.027 142.607C243.079 142.514 243.176 142.417 243.096 142.267ZM206.001 144.49C205.543 144.85 205.223 145.281 204.918 145.909C204.2 147.388 204.337 148.627 205.35 149.813C205.549 150.045 205.766 150.25 206.001 150.421C207.004 151.15 208.089 151.504 209.242 151.284C210.882 150.972 212.063 149.873 212.692 147.954C212.784 147.672 212.892 147.379 212.826 147.015C212.482 147.258 212.169 147.512 211.834 147.706C211.561 147.865 211.37 148.072 211.212 148.399C210.594 149.681 209.387 150.289 208.214 149.92C206.976 149.531 206.301 148.465 205.982 147.008C205.806 146.203 205.852 145.389 206.001 144.49ZM234.897 107.735C234.634 108.086 234.506 108.428 234.378 108.77C234.026 109.713 233.823 110.712 233.729 111.737C233.6 113.144 233.605 114.547 233.998 115.907C234.125 116.345 234.28 116.766 234.534 117.116C234.816 117.503 234.998 117.483 235.205 117.042C235.386 116.655 235.471 116.225 235.543 115.792C235.856 113.909 235.759 112.033 235.475 110.161C235.353 109.36 235.217 108.562 234.897 107.735ZM238.345 96.7113C239.314 93.386 237.795 81.8671 236.065 79.2774C235.995 80.0823 236.022 80.8239 236.104 81.5645C236.323 83.543 236.757 85.4644 237.132 87.4018C237.717 90.4223 238.311 93.4411 238.345 96.7113ZM239.176 141.117C239.055 142.341 239.592 143.076 240.517 143.07C242.116 143.059 243.478 141.151 243.221 139.214C243.088 138.211 242.696 137.293 241.647 137.129C241.031 137.033 240.42 137.018 239.807 137.075C239.392 137.113 239.12 137.515 238.789 137.764C238.745 137.797 238.722 137.913 238.723 137.989C238.734 138.614 238.8 139.223 239.102 139.807C239.383 139.531 239.637 139.28 239.934 139.117C240.669 138.714 241.398 138.703 242.089 139.24C242.523 139.577 242.77 140.081 242.686 140.733C242.602 141.391 242.284 141.828 241.754 142.019C241.435 142.135 241.113 142.108 240.79 142.05C240.201 141.944 239.701 141.593 239.176 141.117ZM194.566 9.7604C194.618 9.39351 194.656 9.12699 194.693 8.86047C194.886 7.49738 195.104 6.14215 195.516 4.84679C195.931 3.53958 196.584 2.46965 197.572 1.73083C197.645 1.67564 197.766 1.65415 197.746 1.46091C196.951 1.6418 196.178 1.87556 195.456 2.32329C194.826 2.71419 194.348 3.29543 194.035 4.07136C193.682 4.94294 193.452 5.86599 193.392 6.83473C193.319 8.02752 193.671 8.99518 194.566 9.7604ZM238.934 136.059C239.328 135.956 239.642 135.872 239.956 135.794C240.078 135.764 240.177 135.687 240.27 135.594C241.65 134.222 242.809 132.614 243.723 130.741C243.853 130.474 243.885 130.207 243.781 129.853C241.606 131.255 239.623 132.819 238.934 136.059ZM244.24 138.994C244.358 136.606 243.996 134.269 243.866 131.893C243.04 133.305 242.104 134.559 241.07 135.701C242.458 136.395 243.703 137.165 244.24 138.994ZM210.043 147.585C210.216 147.561 210.419 147.535 210.623 147.505C210.882 147.468 211.011 147.302 211.016 146.966C211.022 146.536 210.964 146.13 210.786 145.758C210.584 145.338 210.295 145.063 209.892 145.003C209.683 144.972 209.494 144.964 209.415 145.306C209.357 145.559 209.167 145.688 208.964 145.776C208.619 145.926 208.541 146.086 208.589 146.501C208.636 146.906 208.815 147.193 209.112 147.374C209.397 147.547 209.704 147.561 210.043 147.585ZM212.447 37.4981C213.589 37.8033 214.73 38.0257 215.859 38.3398C216.005 38.3807 216.165 38.3818 216.316 38.3646C217.131 38.2717 217.948 38.2364 218.766 38.206C218.869 38.2022 219.004 38.2579 219.06 38.0732C218.382 37.6544 217.965 37.524 217.301 37.5197C216.227 37.5129 215.154 37.5042 214.08 37.4986C213.536 37.4958 212.992 37.4981 212.447 37.4981ZM241.175 141.389C241.721 141.411 242.054 141.153 242.113 140.662C242.171 140.183 241.896 139.765 241.395 139.611C240.727 139.407 240.149 139.649 239.635 140.184C239.481 140.345 239.476 140.474 239.633 140.637C240.08 141.099 240.588 141.364 241.175 141.389ZM215.322 9.99813C215.801 9.15409 215.902 8.37639 215.6 7.54558C215.353 6.86466 214.944 6.33149 214.499 5.83821C214.421 5.75107 214.346 5.64629 214.158 5.62354C214.685 7.04278 214.993 8.46586 215.322 9.99813ZM236.634 137.952C234.996 138.589 233.534 139.476 231.957 140.284C232.088 140.306 232.137 140.332 232.177 140.319C233.507 139.872 234.824 139.379 236.089 138.694C236.338 138.56 236.506 138.347 236.634 137.952ZM207.388 0.88433C208.689 1.30988 209.973 1.8072 211.228 2.41862C210.083 1.39431 208.765 1.02874 207.388 0.88433ZM176.39 117.364C177.08 117.066 177.794 116.816 178.087 115.725C177.509 116.369 176.914 116.812 176.39 117.364ZM178.694 114.923C179.281 114.49 179.302 114.372 178.901 113.98C178.909 114.292 178.827 114.558 178.694 114.923ZM179.919 114.157C179.882 114.078 179.838 114.01 179.759 114.025C179.743 114.028 179.723 114.092 179.726 114.124C179.736 114.227 179.794 114.262 179.871 114.235C179.892 114.228 179.904 114.183 179.919 114.157Z" fill="#1C1C1E"/>
</svg>
